# xmcd
#
# Track frame offsets:
#	150
#	12054
#	21011
#	36244
#	50271
#	61470
#	77365
#	88508
#	97907
#	109799
#	124157
#	133323
#	146888
#	160316
#	169989
#	179852
#	195245
#	206773
#	219161
#	230287
#	241277
#	255943
#	271355
#	282980
#	298714
#	310462
#
# Disc length: 4285 seconds
#
# Revision: 0
# Processed by: cddbd v1.5.2PL0 Copyright (c) Steve Scherf et al.
# Submitted via: EasyCDDAExtractor 11.0.2.1
#
DISCID=7510bb1a
DTITLE=Rabbit in a Log: Skip Gorman and Richard Starkey - Late Night Feast
DYEAR=2006
DGENRE=Country
TTITLE0='Way Downtown
TTITLE1=Cindy
TTITLE2=Dark Hollow
TTITLE3=In the Pines
TTITLE4=New Camptown Races
TTITLE5=Weeping Willow
TTITLE6=Sittin' on Top of the World
TTITLE7=East Tennessee Medley
TTITLE8=Who Will Sing?
TTITLE9=Kentucky Waltz
TTITLE10=Dallas Rag - Beaumont Rag
TTITLE11=Cora is Gone
TTITLE12=Feast Here Tonight
TTITLE13=Nine Pound Hammer
TTITLE14=Katy Hill
TTITLE15=I'm Blue and Lonesome
TTITLE16=East Virginia
TTITLE17=My Rough and Rowdy Ways
TTITLE18=Dixon County Blues
TTITLE19=Back to the Old Home
TTITLE20=Where is My Sailor Boy?
TTITLE21=Lonesome River
TTITLE22=Tennessee Blues
TTITLE23=Alabama Waltz
TTITLE24=On Some Foggy Mountain Top
TTITLE25=New Lost Train Blues
EXTD=
EXTT0=
EXTT1=
EXTT2=
EXTT3=
EXTT4=
EXTT5=
EXTT6=
EXTT7=
EXTT8=
EXTT9=
EXTT10=
EXTT11=
EXTT12=
EXTT13=
EXTT14=
EXTT15=
EXTT16=
EXTT17=
EXTT18=
EXTT19=
EXTT20=
EXTT21=
EXTT22=
EXTT23=
EXTT24=
EXTT25=
PLAYORDER=
